<svg width="458" height="642" viewBox="0 0 458 642" fill="none" xmlns="http://www.w3.org/2000/svg">
<path d="M265.302 527.019C265.302 527.019 269.369 551.303 264.333 572.881L335.465 612.303C335.465 612.303 338.874 597.438 329.676 581.954C320.477 566.47 315.95 554.336 317.328 537.766L265.302 527.019Z" fill="#FF2633"/>
<path d="M304.727 563.55L318.301 565.666" stroke="white" stroke-width="1.34399" stroke-miterlimit="10" stroke-linecap="round"/>
<path d="M360.825 495.149C360.825 495.149 379.113 522.58 393.941 524.729L443.149 470.693C443.149 470.693 435.676 458.509 414.575 468.522C414.575 468.522 409.386 471.704 401.125 469.157C397.208 467.955 393.034 465.132 388.717 459.695L360.825 495.149Z" fill="#FF2633"/>
<path d="M401.817 484.934L405.33 471.646" stroke="white" stroke-width="1.34399" stroke-miterlimit="10" stroke-linecap="round"/>
<path d="M406.278 361.404L350.103 343.013C346.244 341.75 342.092 343.854 340.829 347.713L322.438 403.887C321.175 407.746 323.279 411.898 327.137 413.162L383.312 431.552C387.171 432.816 391.323 430.712 392.586 426.853L410.977 370.678C412.24 366.82 410.136 362.667 406.278 361.404Z" stroke="#DADEEB" stroke-width="1.34399" stroke-miterlimit="10"/>
<path d="M338.943 293.031L291.852 305.601C291.474 305.701 291.079 305.715 290.695 305.644C290.311 305.572 289.947 305.417 289.63 305.189C289.313 304.96 289.051 304.664 288.862 304.323C288.673 303.981 288.561 303.601 288.536 303.211L292.582 270.195C292.723 269.042 293.211 267.959 293.982 267.09C294.753 266.222 295.77 265.608 296.898 265.331L344.842 253.519C345.208 253.416 345.594 253.408 345.964 253.496C346.334 253.583 346.676 253.764 346.956 254.02C347.237 254.276 347.448 254.6 347.57 254.96C347.691 255.32 347.718 255.706 347.649 256.079L341.32 290.467C341.208 291.076 340.925 291.641 340.504 292.095C340.083 292.549 339.541 292.874 338.943 293.031Z" fill="#BEDDFA"/>
<path d="M339.434 211.603C350.439 210.404 358.388 200.509 357.189 189.503C355.989 178.498 346.094 170.549 335.088 171.748C324.083 172.948 316.134 182.843 317.334 193.849C318.533 204.854 328.428 212.803 339.434 211.603Z" fill="#FF2633"/>
<path d="M343.669 194.398L333.066 200.002C332.849 200.12 332.605 200.176 332.358 200.164C332.112 200.152 331.873 200.073 331.669 199.935C331.465 199.796 331.303 199.605 331.2 199.38C331.098 199.156 331.059 198.908 331.088 198.663L332.503 185.354C332.523 185.107 332.61 184.87 332.756 184.67C332.901 184.469 333.099 184.313 333.328 184.218C333.557 184.123 333.808 184.093 334.052 184.132C334.297 184.17 334.527 184.276 334.715 184.437L343.904 192.148C344.08 192.289 344.218 192.471 344.304 192.679C344.391 192.887 344.425 193.113 344.401 193.337C344.378 193.561 344.299 193.775 344.171 193.961C344.043 194.146 343.87 194.296 343.669 194.398Z" fill="white"/>
<path d="M105.36 183.27C91.479 201.747 80.1743 222.025 71.7569 243.548C67.8933 253.231 64.7814 263.197 62.4489 273.358C60.2141 283.029 59.2164 292.944 59.48 302.866C59.8191 312.319 61.5926 321.889 65.4421 330.573C68.9942 338.599 74.1678 345.804 80.6379 351.735C86.9522 357.62 94.6279 361.846 102.977 364.034C107.067 365.058 111.286 365.47 115.497 365.259C117.272 365.172 119.041 365.046 120.823 364.997C124.974 364.947 129.119 364.687 133.244 364.218C138.395 363.634 143.436 362.313 148.212 360.297C153.597 357.975 158.406 354.498 162.299 350.112C167.23 344.494 170.45 337.558 172.422 330.396C174.446 323.083 175.831 314.296 170.387 308.082C165.276 302.267 156.699 300.661 149.411 302.381C139.538 304.721 132.183 312.143 127.067 320.571C122.659 327.627 119.708 335.495 118.39 343.71C117.26 351.081 117.275 359.358 120.817 366.129C122.805 369.954 126.163 372.904 129.4 375.669C134.485 379.986 140.043 383.714 145.966 386.782C154.381 391.154 163.477 394.065 172.867 395.39C178.254 396.117 183.697 396.329 189.124 396.022C190.097 395.973 188.898 394.525 188.898 394.525C178.478 395.101 168.043 393.683 158.155 390.346C146.229 386.253 135.352 379.581 126.298 370.805C124.64 369.245 123.238 367.434 122.144 365.439C120.571 362.214 119.641 358.714 119.403 355.133C118.748 347.528 120.179 339.649 122.805 332.514C124.325 328.462 126.252 324.576 128.558 320.913C131.204 316.479 134.6 312.536 138.593 309.261C145.45 303.853 154.957 301.267 163.262 304.81C166.04 305.935 168.446 307.82 170.204 310.249C172.209 313.149 172.871 316.748 172.768 320.232C172.605 324.603 171.429 328.994 170.04 333.12C168.888 336.644 167.352 340.03 165.458 343.217C162.341 348.448 158.042 352.876 152.905 356.145C148.466 358.859 143.586 360.775 138.486 361.807C134.07 362.699 129.585 363.212 125.081 363.339C123.283 363.411 121.488 363.439 119.697 363.492C117.6 363.553 115.502 363.78 113.406 363.784C105.085 363.694 96.9541 361.29 89.9219 356.841C82.7026 352.301 76.5431 346.263 71.8603 339.136C66.9743 331.656 63.69 323.245 62.2141 314.433C60.629 304.971 60.4858 295.324 61.7894 285.819C63.095 276.196 65.2957 266.716 68.363 257.502C71.7801 247.02 75.8874 236.777 80.658 226.839C85.5213 216.692 91.0558 206.881 97.2245 197.471C100.196 192.941 103.311 188.511 106.569 184.18C106.67 184.019 106.706 183.826 106.671 183.64C106.637 183.453 106.533 183.286 106.382 183.172C106.23 183.057 106.041 183.004 105.852 183.022C105.663 183.041 105.487 183.129 105.36 183.27Z" fill="#DADEEB"/>
<path d="M258.646 166.32L272.711 159.419" stroke="#DADEEB" stroke-width="1.34399" stroke-miterlimit="10" stroke-linecap="round"/>
<path d="M257.938 172.914L273.608 173.044" stroke="#DADEEB" stroke-width="1.34399" stroke-miterlimit="10" stroke-linecap="round"/>
<path d="M392.708 456.927C359.576 409.165 320.281 378.907 300.574 363.751C297.541 361.418 293.814 358.546 292.522 357.416C283.06 349.937 280.466 334.26 280.466 334.26L239.548 351.984C239.539 351.94 239.535 351.895 239.533 351.85C239.539 351.904 239.543 351.944 239.514 351.988L239.191 352.124L180.986 343.599C180.194 348.728 174.587 394.582 208.261 425.426C215.463 432.03 228.17 449.504 240.315 473.657C252.393 497.642 259.095 512.98 260.927 529.787L327.968 543.778C324.452 511.525 302.027 464.752 293.153 447.097C287.496 435.778 281.21 424.785 274.327 414.167C295.969 431.262 329.572 460.837 354.427 507.203C354.451 507.173 395.604 461.107 392.708 456.927Z" fill="#0D0F44"/>
<path d="M263.163 516.139L312.849 527.067" stroke="#E6E6E6" stroke-width="1.34399" stroke-miterlimit="10" stroke-linecap="round"/>
<path d="M385.862 447.406C385.862 447.406 371.099 472.512 358.583 484.943" stroke="#E6E6E6" stroke-width="1.34399" stroke-miterlimit="10" stroke-linecap="round"/>
<path d="M272.365 411.13C272.365 411.13 261.812 395.496 255.042 388.643L259.62 379.228" stroke="#E6E6E6" stroke-width="1.34399" stroke-miterlimit="10" stroke-linecap="round"/>
<path d="M177.817 129.624L110.751 149.404C107.684 150.307 104.394 150.066 101.492 148.725C98.5897 147.385 96.2731 145.036 94.9728 142.116L73.9758 94.8467C73.2831 93.2971 72.9311 91.6168 72.9435 89.9194C72.956 88.2221 73.3326 86.5472 74.048 85.0078C74.7634 83.4685 75.8008 82.1007 77.0902 80.9968C78.3796 79.8929 79.891 79.0786 81.5221 78.6089L169.323 53.1802C170.854 52.7385 172.463 52.6342 174.038 52.8745C175.614 53.1148 177.119 53.6939 178.449 54.572C179.779 55.4501 180.903 56.6063 181.743 57.9608C182.583 59.3153 183.119 60.8358 183.314 62.4176L189.484 111.801C189.965 115.672 189.056 119.588 186.919 122.852C184.783 126.116 181.557 128.516 177.817 129.624Z" fill="#BEDDFA"/>
<path d="M111.479 134.439L106.58 141.143C106.437 141.343 106.242 141.5 106.015 141.597C105.789 141.694 105.541 141.727 105.297 141.693C105.054 141.658 104.824 141.557 104.634 141.401C104.444 141.245 104.3 141.04 104.218 140.808L100.442 132.255C100.367 132.087 100.34 131.903 100.362 131.722C100.384 131.54 100.454 131.368 100.566 131.223C100.678 131.078 100.827 130.966 100.997 130.899C101.168 130.832 101.353 130.812 101.533 130.842L110.708 132.324C110.926 132.375 111.127 132.479 111.294 132.628C111.462 132.776 111.589 132.963 111.666 133.173C111.742 133.383 111.765 133.609 111.733 133.83C111.7 134.05 111.613 134.26 111.479 134.439Z" fill="white"/>
<path d="M147.852 123.62L140.883 125.713L118.072 132.56C117.903 132.61 117.725 132.627 117.549 132.61C117.374 132.592 117.203 132.54 117.048 132.456C116.892 132.372 116.755 132.259 116.643 132.122C116.532 131.985 116.448 131.828 116.397 131.658C116.296 131.318 116.335 130.951 116.503 130.639C116.672 130.326 116.957 130.093 117.297 129.991L140.184 123.112L147.315 120.972C147.771 121.775 147.96 122.702 147.852 123.62Z" fill="white"/>
<path d="M147.779 124.051C147.584 125.089 146.99 126.01 146.124 126.615C145.258 127.22 144.189 127.461 143.147 127.285C142.215 127.08 141.401 126.515 140.883 125.713C140.371 124.947 140.13 124.033 140.197 123.115C140.223 122.537 140.368 121.971 140.625 121.453C140.881 120.935 141.243 120.476 141.687 120.105C142.13 119.735 142.646 119.461 143.202 119.301C143.758 119.141 144.34 119.099 144.913 119.176C145.419 119.29 145.896 119.509 146.311 119.819C146.727 120.129 147.074 120.523 147.328 120.975C147.779 121.778 147.963 122.705 147.852 123.62C147.835 123.761 147.81 123.906 147.779 124.051Z" fill="white"/>
<path d="M180.327 113.864L147.852 123.62C147.963 122.705 147.779 121.778 147.328 120.975L179.553 111.295C179.725 111.232 179.908 111.204 180.09 111.215C180.273 111.225 180.452 111.272 180.616 111.354C180.78 111.436 180.926 111.55 181.044 111.69C181.162 111.83 181.25 111.993 181.303 112.168C181.356 112.344 181.372 112.528 181.351 112.71C181.33 112.892 181.272 113.068 181.181 113.227C181.09 113.386 180.967 113.524 180.82 113.634C180.673 113.743 180.505 113.822 180.327 113.864Z" fill="#CBE6FF"/>
<path d="M238.949 225.418C238.949 225.418 247.982 229.963 278.273 277.271C284.098 286.363 291.995 293.391 317.799 294.708L296.559 325.266C296.559 325.266 256.672 318.218 251.331 299.927C245.991 281.636 238.949 225.418 238.949 225.418Z" fill="#475AEA"/>
<path d="M264.268 271.714C259.779 251.059 249.213 231.336 235.36 222.95C226.198 217.406 217.775 217.155 206.412 218.394C178.461 221.441 156.672 255.337 153.576 289.934C152.502 296.197 152.712 302.614 154.193 308.794C157.297 324.374 167.377 335.544 180.262 342.123C214.221 361.573 266.635 341.967 266.635 341.967C270.913 311.081 268.03 287.371 264.268 271.714Z" fill="#475AEA"/>
<path d="M242.714 239.69C242.714 239.69 263.146 265.894 257.662 325.207" stroke="#E6E6E6" stroke-width="1.34399" stroke-miterlimit="10" stroke-linecap="round"/>
<path d="M330.3 280.427C330.759 280.404 331.217 280.489 331.638 280.675C332.058 280.861 332.429 281.143 332.72 281.499C333.012 281.854 333.217 282.272 333.317 282.721C333.418 283.169 333.413 283.635 333.301 284.081L323.286 332.532C323.127 333.39 322.736 334.189 322.155 334.841C321.574 335.493 320.826 335.973 319.992 336.231L256.446 354.792C256.212 354.859 255.972 354.903 255.73 354.924C255.264 354.951 254.798 354.883 254.359 354.723C253.921 354.563 253.52 354.315 253.181 353.994C252.842 353.673 252.573 353.286 252.389 352.857C252.205 352.428 252.111 351.966 252.112 351.5L259.046 304.987C259.273 303.377 259.96 301.867 261.026 300.639C262.091 299.411 263.489 298.517 265.051 298.066L329.661 280.578C329.867 280.502 330.082 280.451 330.3 280.427Z" fill="#FFD550"/>
<path d="M328.627 279.46C328.238 279.301 327.816 279.236 327.397 279.27C327.172 279.285 326.949 279.328 326.734 279.396L262.125 296.884C260.563 297.336 259.165 298.229 258.099 299.457C257.034 300.685 256.346 302.195 256.12 303.805L249.192 350.317C249.197 351.003 249.404 351.673 249.787 352.242C250.17 352.811 250.712 353.254 251.346 353.516L254.25 354.673C253.616 354.412 253.073 353.969 252.69 353.399C252.307 352.83 252.1 352.16 252.097 351.474L259.031 304.961C259.257 303.351 259.945 301.841 261.01 300.613C262.076 299.385 263.474 298.492 265.036 298.04L329.645 280.552C330.26 280.358 330.923 280.378 331.524 280.611L328.627 279.46Z" fill="#FFB444"/>
<path d="M216.554 320.712C216.554 320.712 229.396 310.903 239.01 306.333C248.625 301.763 257.631 298.936 259.631 299.914C261.101 300.626 262.709 305.953 254.996 313.824C254.996 313.824 262.968 315.706 270.218 314.868C277.1 314.064 282.664 313.451 284.842 319.358C285.197 320.319 285.016 321.941 284.398 323.969C283.178 327.581 281.509 331.026 279.433 334.224C277.713 336.957 275.793 339.559 273.691 342.009C267.509 349.172 259.511 355.046 251.514 354.424C240.689 353.566 229.985 351.56 219.584 348.442C219.584 348.442 203.608 345.695 216.554 320.712Z" fill="#F3ABAA"/>
<path d="M273.669 327.004C271.825 327.214 269.97 327.303 268.115 327.272C268.026 327.27 267.938 327.25 267.857 327.214C267.775 327.178 267.702 327.126 267.64 327.061C267.517 326.931 267.45 326.757 267.454 326.577C267.459 326.397 267.535 326.226 267.665 326.103C267.795 325.979 267.97 325.912 268.149 325.916C268.23 325.908 276.284 326.125 282.436 323.527C282.517 323.493 282.605 323.475 282.693 323.475C282.782 323.474 282.869 323.491 282.951 323.525C283.033 323.558 283.107 323.608 283.17 323.67C283.233 323.732 283.283 323.806 283.317 323.887C283.351 323.969 283.369 324.056 283.369 324.145C283.37 324.233 283.353 324.321 283.319 324.403C283.286 324.484 283.236 324.559 283.174 324.621C283.112 324.684 283.038 324.734 282.957 324.768C279.981 325.945 276.854 326.697 273.669 327.004Z" fill="#FF2633"/>
<path d="M273.649 335.679C271.966 335.863 269.807 336.024 267.091 336.104C267.002 336.107 266.914 336.092 266.831 336.06C266.748 336.029 266.673 335.982 266.608 335.921C266.544 335.86 266.492 335.787 266.456 335.706C266.42 335.625 266.4 335.538 266.398 335.449C266.394 335.271 266.461 335.099 266.583 334.971C266.706 334.842 266.875 334.767 267.053 334.763C274.889 334.53 278.035 333.565 278.069 333.562C278.239 333.509 278.423 333.527 278.58 333.61C278.737 333.693 278.855 333.834 278.908 334.004C278.96 334.173 278.944 334.356 278.862 334.513C278.781 334.67 278.641 334.788 278.472 334.843C276.892 335.264 275.278 335.544 273.649 335.679Z" fill="#FF2633"/>
<path d="M264.071 343.497L262.314 343.689C262.137 343.708 261.959 343.656 261.82 343.544C261.681 343.433 261.592 343.271 261.573 343.093C261.554 342.916 261.605 342.739 261.717 342.6C261.829 342.461 261.991 342.372 262.168 342.352C269.531 341.685 271.852 340.715 271.871 340.706C272.035 340.635 272.22 340.631 272.386 340.696C272.552 340.761 272.686 340.889 272.758 341.053C272.829 341.216 272.833 341.401 272.768 341.567C272.703 341.734 272.575 341.867 272.411 341.939C272.319 341.962 270.297 342.818 264.071 343.497Z" fill="#FF2633"/>
<path d="M258.757 350.566C257.635 350.688 256.353 350.774 254.884 350.819C254.796 350.822 254.708 350.807 254.625 350.776C254.542 350.745 254.466 350.698 254.402 350.638C254.271 350.516 254.194 350.347 254.188 350.168C254.182 349.99 254.247 349.816 254.369 349.685C254.491 349.555 254.66 349.478 254.839 349.472C262.487 349.246 264.747 347.716 264.782 347.671C264.926 347.567 265.105 347.525 265.281 347.553C265.456 347.58 265.613 347.676 265.718 347.819C265.823 347.962 265.867 348.139 265.842 348.314C265.817 348.489 265.724 348.647 265.583 348.753C265.495 348.817 263.868 350.008 258.757 350.566Z" fill="#FF2633"/>
<path d="M175.482 236.218C175.482 236.218 146.627 262.523 142.816 315.307C142.816 315.307 141.86 329.539 150.952 335.612C160.043 341.684 189.65 353.145 225.408 350.092C225.408 350.092 208.341 343.476 216.553 320.712C216.553 320.712 194.063 315.188 187.303 307.496C180.542 299.803 195.276 273.612 195.276 273.612C195.276 273.612 210.042 201.349 175.482 236.218Z" fill="#475AEA"/>
<path d="M189.216 272.021C189.216 272.021 180.626 302.363 189.631 309.432C192.921 312.02 198.899 316.195 214.961 320.298" stroke="#E6E6E6" stroke-width="1.34399" stroke-miterlimit="10" stroke-linecap="round"/>
<path d="M296.92 311.592C300.208 310.754 303.181 313.221 303.529 317.097C303.878 320.973 301.464 324.812 298.155 325.653C294.847 326.494 291.893 324.017 291.551 320.134C291.209 316.25 293.618 312.432 296.92 311.592Z" fill="white"/>
<path d="M333.033 285.746C333.033 285.746 356.912 304.565 329.461 331.852C329.461 331.852 316.141 341.186 308.013 332.359C308.013 332.359 302.996 322.861 311.415 312.472C312.743 310.419 314.598 308.76 316.786 307.669C320.133 306.188 328.168 301.02 330.028 297.62C331.888 294.219 333.033 285.746 333.033 285.746Z" fill="#F3ABAA"/>
<path d="M314.896 317.426C313.711 317.615 312.495 317.431 311.419 316.899C310.915 316.627 310.481 316.241 310.151 315.773C309.821 315.305 309.603 314.766 309.515 314.2C309.496 314.023 309.548 313.846 309.66 313.707C309.771 313.568 309.933 313.479 310.111 313.459C310.288 313.44 310.465 313.492 310.604 313.604C310.743 313.715 310.832 313.877 310.852 314.055C310.916 314.41 311.06 314.746 311.275 315.037C311.489 315.328 311.768 315.565 312.089 315.731C313.238 316.35 315.662 316.572 320.634 314.124C326.019 311.434 326.947 310.461 327.03 310.357C327.123 310.219 327.264 310.12 327.426 310.08C327.588 310.04 327.759 310.061 327.905 310.14C328.063 310.224 328.18 310.368 328.231 310.538C328.283 310.709 328.265 310.893 328.18 311.05C328.008 311.386 326.983 312.465 321.211 315.325C319.241 316.38 317.105 317.09 314.896 317.426Z" fill="#FF2633"/>
<path d="M313.639 324.499C308.294 325.081 306.507 321.092 306.502 321.045C306.432 320.882 306.429 320.697 306.495 320.531C306.56 320.366 306.689 320.233 306.852 320.162C307.016 320.091 307.201 320.089 307.366 320.154C307.532 320.22 307.665 320.348 307.735 320.512C307.817 320.699 309.766 324.874 316.304 322.471C321.449 320.558 322.77 319.779 322.77 319.779C322.92 319.689 323.099 319.661 323.269 319.701C323.439 319.741 323.587 319.846 323.681 319.993C323.775 320.14 323.809 320.318 323.774 320.489C323.739 320.66 323.639 320.811 323.495 320.909C323.442 320.915 322.145 321.733 316.779 323.73C315.768 324.114 314.713 324.372 313.639 324.499Z" fill="#FF2633"/>
<path d="M314.612 331.747C313.181 331.923 311.73 331.81 310.345 331.414C308.959 331.018 307.667 330.348 306.546 329.443C306.482 329.382 306.43 329.31 306.394 329.229C306.357 329.149 306.337 329.062 306.335 328.974C306.332 328.886 306.347 328.798 306.378 328.715C306.409 328.633 306.456 328.557 306.517 328.493C306.639 328.365 306.806 328.29 306.983 328.285C307.159 328.28 307.331 328.344 307.46 328.464C307.655 328.639 312.185 332.681 319.228 328.831C319.385 328.745 319.569 328.724 319.74 328.774C319.912 328.824 320.057 328.94 320.143 329.096C320.229 329.252 320.249 329.437 320.199 329.608C320.15 329.78 320.034 329.924 319.877 330.01C318.254 330.932 316.464 331.522 314.612 331.747Z" fill="#FF2633"/>
<path d="M230.902 182.249C228.32 190.129 229.73 197.668 234.055 199.082C238.38 200.496 245.314 194.84 247.769 186.913C250.583 177.819 247.719 171.952 243.394 170.538C239.069 169.123 233.462 174.365 230.902 182.249Z" fill="#FFB444"/>
<path d="M247.778 186.916C250.01 180.098 248.797 173.581 245.069 172.361C241.341 171.14 236.509 175.678 234.277 182.496C232.045 189.313 233.258 195.83 236.986 197.05C240.714 198.271 245.546 193.733 247.778 186.916Z" fill="#FFD550"/>
<path d="M225.717 202.526L200.547 193.441L193.982 216.923L192.371 222.669C202.197 229.033 214.616 227.247 221 224.55C224.826 222.93 225.156 220.629 225.156 220.629C223.338 216.109 225.717 202.526 225.717 202.526Z" fill="#F3ABAA"/>
<path d="M224.717 210.402C225.08 206.232 225.717 202.526 225.717 202.526L200.547 193.441C200.547 193.441 203.357 208.242 224.717 210.402Z" fill="#0D0F44"/>
<path d="M222.559 204.182C236.601 202.651 246.662 189.281 245.031 174.321C243.4 159.36 230.694 148.473 216.652 150.004C202.61 151.535 192.549 164.904 194.18 179.865C195.811 194.826 208.517 205.713 222.559 204.182Z" fill="#F3ABAA"/>
<path d="M194.452 171.02C197.281 159.768 205.502 151.22 216.07 150.067C230.313 148.514 243.346 160.978 245.191 177.906C245.289 178.801 245.386 179.69 245.389 180.588L246.61 180.814C246.72 178.716 246.66 176.614 246.432 174.526C244.392 155.821 229.593 142.097 213.346 143.868C200.44 145.275 191.627 151.306 189.9 170.192L194.452 171.02Z" fill="#FFD550"/>
<path d="M253.958 151.54C253.101 143.684 245.82 138.036 237.71 138.92C236.261 139.08 234.842 139.444 233.495 140.002C229.845 137.251 225.421 135.72 220.851 135.628C211.766 135.51 199.727 140.838 196.266 158.824C195.949 162.136 196.086 165.476 196.673 168.75C196.673 168.75 203.254 171.703 208.49 164.67C213.596 157.813 219.1 156.956 222.329 158.862C226.667 161.451 229.455 167.549 240.791 167.361C241.318 167.413 241.85 167.339 242.342 167.144C244.273 171.191 245.221 175.636 245.109 180.119C251.826 172.35 252.284 164.147 251.188 161.475C253.346 158.639 254.337 155.084 253.958 151.54Z" fill="#0D0F44"/>
<path d="M204.051 176.781C205.43 184.959 202.906 192.196 198.425 192.942C193.943 193.687 187.921 187.064 186.676 178.865C185.243 169.442 188.951 164.083 193.438 163.324C197.925 162.564 202.673 168.603 204.051 176.781Z" fill="#FFB444"/>
<path d="M195.836 190.517C199.704 189.866 201.875 183.604 200.685 176.529C199.494 169.455 195.393 164.247 191.525 164.898C187.656 165.549 185.485 171.812 186.676 178.887C187.866 185.961 191.967 191.168 195.836 190.517Z" fill="#FFD550"/>
<path d="M224.816 176.453C225.262 174.499 224.808 172.729 223.802 172.499C222.796 172.27 221.619 173.668 221.174 175.622C220.728 177.576 221.182 179.346 222.188 179.575C223.194 179.805 224.371 178.407 224.816 176.453Z" fill="#0D0F44"/>
<path d="M240.405 178.846C240.856 176.882 240.402 175.101 239.391 174.869C238.379 174.636 237.194 176.041 236.743 178.005C236.292 179.969 236.746 181.75 237.757 181.982C238.768 182.214 239.954 180.81 240.405 178.846Z" fill="#0D0F44"/>
<path d="M211.584 186.039C210.512 187.926 212.2 192.312 217.181 192.053" stroke="#0D0F44" stroke-width="1.34399" stroke-miterlimit="10" stroke-linecap="round"/>
<path d="M230.79 179.544L229.914 187.197C229.888 187.418 229.818 187.631 229.706 187.823C229.594 188.015 229.444 188.183 229.265 188.314C229.086 188.446 228.882 188.54 228.665 188.589C228.449 188.638 228.224 188.643 228.006 188.601L226.211 188.263" stroke="#0D0F44" stroke-width="1.34399" stroke-miterlimit="10" stroke-linecap="round"/>
</svg>
