<svg width="378" height="517" viewBox="0 0 378 517" fill="none" xmlns="http://www.w3.org/2000/svg">
<path d="M119.228 206.97L30.1095 234.265C28.8601 234.545 27.5676 234.577 26.3059 234.358C25.0442 234.14 23.8381 233.676 22.7567 232.993C21.6752 232.31 20.7396 231.421 20.0034 230.377C19.2672 229.334 18.7449 228.156 18.4663 226.911L1.23444 149.923C0.67087 147.409 1.13278 144.775 2.5186 142.6C3.90443 140.425 6.10069 138.887 8.62442 138.325L100.188 123.316C103.445 122.783 106.784 123.511 109.52 125.351C112.255 127.192 114.18 130.006 114.899 133.215L128.042 191.886C128.745 195.043 128.228 198.349 126.595 201.144C124.961 203.939 122.331 206.019 119.228 206.97V206.97Z" stroke="#DADEEB" stroke-width="1.37431" stroke-miterlimit="10" stroke-linecap="round"/>
<path d="M149.089 382.497C137.014 361.191 115.529 316.82 109.81 262.365" stroke="#DADEEB" stroke-width="1.37431" stroke-miterlimit="10" stroke-linecap="round"/>
<path d="M310.141 363.77C315.394 348.277 319.969 330.341 320.661 313.47" stroke="#DADEEB" stroke-width="1.37431" stroke-miterlimit="10" stroke-linecap="round"/>
<path d="M327.475 372.011C327.475 372.011 330.153 346.933 345.714 329.905L363.686 343.726C363.686 343.726 339.454 349.648 327.475 372.011Z" fill="#FFD550"/>
<path d="M367.167 386.846C397.342 389.001 420.121 412.994 418.153 440.346C416.184 467.698 390.203 488.209 360.028 486.055C329.852 483.9 307.074 459.908 309.042 432.555C311.01 405.203 336.992 384.692 367.167 386.846Z" stroke="#DADEEB"/>
<path d="M342.626 260.912C342.626 260.912 353.721 261.595 358.885 255.707C361.529 252.699 368.036 246.347 376.268 242.704C384.5 239.061 375.494 253.79 375.809 254.984C376.22 256.58 391.431 246.231 393.719 249.492C396.007 252.753 398.452 261.601 388.158 270.484C377.864 279.366 345.557 292.165 336.558 291.121C327.558 290.077 331.168 269.324 342.626 260.912Z" fill="#F3ABAA"/>
<path d="M374.349 255.918L368.219 261.683" stroke="#0D0F44" stroke-width="0.916209" stroke-miterlimit="10" stroke-linecap="round"/>
<path d="M112.242 191.313C112.242 191.313 109.886 186.401 109.502 177.368C109.146 168.766 107.023 152.597 101.797 152.597C99.3249 152.597 94.0786 154.773 94.5101 170.164C94.5101 170.164 93.3457 176.406 82.5656 164.788C71.7854 153.17 67.5459 153.914 64.3543 156.363C58.6971 160.715 49.4853 171.904 57.2109 188.161C64.9365 204.418 90.8733 217.496 90.8733 217.496L112.242 191.313Z" fill="#F3ABAA"/>
<path d="M64.6763 159.208C64.6763 159.208 72.7306 168.929 77.3057 171.488" stroke="#0D0F44" stroke-width="0.916209" stroke-miterlimit="10" stroke-linecap="round"/>
<path d="M61.3132 165.354C61.3132 165.354 69.3607 175.076 73.9426 177.634" stroke="#0D0F44" stroke-width="0.916209" stroke-miterlimit="10" stroke-linecap="round"/>
<path d="M58.3611 172.681C58.3611 172.681 66.4086 182.389 70.9905 184.961" stroke="#0D0F44" stroke-width="0.916209" stroke-miterlimit="10" stroke-linecap="round"/>
<path d="M58.3611 182.076C60.8914 185.102 63.5775 187.997 66.4086 190.747" stroke="#0D0F44" stroke-width="0.916209" stroke-miterlimit="10" stroke-linecap="round"/>
<path d="M128.486 420.325L203.386 367.297C205.695 365.662 208.339 364.558 211.129 364.065C213.918 363.572 216.782 363.702 219.515 364.445L335.947 396.011C337.956 396.553 339.787 397.611 341.258 399.079C342.728 400.548 343.785 402.375 344.324 404.378C344.863 406.381 344.864 408.489 344.328 410.493C343.792 412.497 342.737 414.325 341.268 415.795L246.014 511.612C242.846 514.807 238.601 516.716 234.1 516.968C229.6 517.22 225.166 515.798 221.659 512.977L127.931 437.299C126.651 436.261 125.629 434.943 124.945 433.447C124.26 431.951 123.932 430.318 123.986 428.675C124.039 427.032 124.473 425.424 125.254 423.975C126.035 422.527 127.141 421.278 128.486 420.325Z" fill="#0D0F44"/>
<path d="M344.227 394.217L344.733 409.362L337.295 415.673L344.227 394.217Z" fill="#0D0F44"/>
<path d="M123.987 419.145V430.518L135.438 436.473L123.987 419.145Z" fill="#0D0F44"/>
<path d="M128.488 410.474L203.388 357.439C205.696 355.804 208.341 354.7 211.13 354.207C213.92 353.714 216.784 353.844 219.517 354.587L335.948 386.153C337.958 386.695 339.789 387.753 341.259 389.221C342.729 390.69 343.787 392.517 344.325 394.52C344.864 396.523 344.866 398.632 344.329 400.635C343.793 402.639 342.738 404.467 341.27 405.937L246.015 501.754C242.844 504.944 238.595 506.847 234.095 507.093C229.595 507.339 225.163 505.91 221.66 503.085L127.933 427.441C126.654 426.403 125.633 425.085 124.949 423.59C124.266 422.095 123.938 420.463 123.992 418.821C124.045 417.178 124.479 415.571 125.259 414.123C126.039 412.675 127.144 411.427 128.488 410.474Z" fill="#475AEA"/>
<path d="M322.708 407.991L288.463 442.422L287.326 437.647C285.58 429.931 280.128 405.426 275.375 379.788L318.222 391.386C319.91 391.838 321.449 392.724 322.685 393.955C323.921 395.187 324.811 396.72 325.265 398.401C325.72 400.083 325.723 401.854 325.274 403.537C324.825 405.22 323.94 406.756 322.708 407.991Z" fill="#DADEEB"/>
<path d="M188.77 460.378L190.941 464.158L143.718 426.042C142.645 425.172 141.788 424.067 141.214 422.812C140.641 421.557 140.366 420.188 140.412 418.81C140.458 417.432 140.823 416.084 141.478 414.87C142.134 413.656 143.062 412.609 144.191 411.811L166.272 396.182C171.343 418.35 178.89 439.882 188.77 460.378Z" fill="#DADEEB"/>
<path d="M239.542 94.8271C239.542 94.8271 260.993 91.2318 265.055 130.705C268.171 160.995 271.061 165.709 271.951 168.534C272.842 171.358 291.998 192.861 286.505 215.293C286.505 215.293 277.958 243.946 251.377 248.755C224.797 253.565 221.66 188.98 221.66 188.98C221.66 188.98 218.044 105.388 239.542 94.8271Z" fill="#475AEA"/>
<path d="M91.1199 363.763C104.071 363.763 114.571 353.305 114.571 340.404C114.571 327.503 104.071 317.045 91.1199 317.045C78.1684 317.045 67.6692 327.503 67.6692 340.404C67.6692 353.305 78.1684 363.763 91.1199 363.763Z" fill="#475AEA"/>
<path d="M99.4351 339.961L90.4014 351.558C90.2499 351.757 90.0464 351.911 89.813 352.003C89.5796 352.095 89.3253 352.122 89.078 352.079C88.8306 352.037 88.5996 351.928 88.4103 351.764C88.221 351.6 88.0805 351.387 88.0043 351.149L82.8471 335.581C82.7666 335.344 82.7529 335.09 82.8075 334.846C82.8621 334.602 82.9829 334.378 83.1568 334.198C83.3306 334.017 83.5508 333.888 83.7933 333.824C84.0358 333.76 84.2913 333.764 84.5319 333.834L98.716 337.777C98.9384 337.835 99.1428 337.947 99.3104 338.103C99.4779 338.26 99.6033 338.456 99.6749 338.673C99.7465 338.89 99.7621 339.122 99.7202 339.347C99.6783 339.572 99.5803 339.783 99.4351 339.961Z" fill="white"/>
<path d="M288.478 442.422L242.782 488.39C240.122 491.066 236.558 492.661 232.782 492.867C229.007 493.072 225.29 491.873 222.352 489.502L190.943 464.158L188.772 460.378C178.891 439.883 171.345 418.35 166.273 396.182C155.876 351.544 157.575 317.366 157.575 317.366L267.479 317.516C267.062 330.6 270.904 355.72 275.39 379.788C280.143 405.426 285.595 429.931 287.341 437.647L288.478 442.422Z" fill="#0D0F44"/>
<path d="M200.168 366.847L210.017 370.599C210.017 370.599 210.311 401.715 246.617 481.506" stroke="#E6E6E6" stroke-width="0.916209" stroke-miterlimit="10" stroke-linecap="round"/>
<path d="M210.153 174.237C210.153 174.237 180.703 175.902 169.745 197.166C156.3 223.09 140.157 219.938 117.618 193.168C116.785 192.176 115.629 191.508 114.352 191.281C113.074 191.054 111.757 191.283 110.632 191.927C102.276 196.702 84.9141 208.73 92.9958 222.217C103.475 239.695 135.171 276.228 162.17 274.14C162.17 274.14 157.328 304.581 157.629 317.366C157.629 317.366 174.238 338.269 215.598 337.368C256.959 336.468 267.534 317.516 267.534 317.516C267.534 317.516 267.986 286.236 269.348 278.118C269.348 278.118 296.566 298.386 336.612 291.134C336.612 291.134 331.27 272.762 342.68 260.912C342.68 260.912 303.114 250.031 298.751 243.987C294.388 237.942 282.361 204.275 279.978 199.24C276.862 192.643 267.65 181.584 249.939 176.263C232.227 170.942 210.153 174.237 210.153 174.237Z" fill="#FF2633"/>
<path d="M176.183 201.369C176.183 201.369 167.088 227.402 162.581 269.556" stroke="#E6E6E6" stroke-width="0.916209" stroke-miterlimit="10" stroke-linecap="round"/>
<path d="M240.679 217.489C240.679 217.489 248.566 243.781 254.136 259.059C255.949 264.029 257.516 267.834 258.486 269.187C262.438 274.7 269.287 278.118 269.287 278.118" stroke="white" stroke-width="0.916209" stroke-miterlimit="10" stroke-linecap="round"/>
<path d="M335.304 258.804C335.304 258.804 323.558 264.876 328.62 289.204" stroke="white" stroke-width="0.916209" stroke-miterlimit="10" stroke-linecap="round"/>
<path d="M120.721 196.777C120.721 196.777 106.016 204.063 98.9001 217.489" stroke="white" stroke-width="0.916209" stroke-miterlimit="10" stroke-linecap="round"/>
<path d="M202.544 102.052C202.544 102.052 189.723 107.851 198.791 128.474L210.126 108.553L202.544 102.052Z" fill="#475AEA"/>
<path d="M243.857 142.582C243.857 142.582 237.296 175.779 237.296 178.473C237.296 181.168 219.284 185.425 209.161 177.109C209.161 177.109 216.695 155.408 218.023 149.977C219.352 144.547 234.44 138.53 243.857 142.582Z" fill="#F3ABAA"/>
<path d="M243.857 142.582L216.297 155.81C215.331 158.839 214.14 162.448 212.975 165.859C212.975 165.859 237.282 169.687 243.857 142.582Z" fill="#0D0F44"/>
<path d="M247.494 129.641C247.494 143.837 236.576 159.201 223.105 159.201C206.708 159.201 197.695 149.52 198.709 129.641C199.435 115.539 209.633 103.948 223.105 103.948C236.576 103.948 247.494 115.45 247.494 129.641Z" fill="#F3ABAA"/>
<path d="M236.173 130.179C221.66 131.578 202.469 120.397 202.544 102.052C202.62 83.707 219.502 83.0248 222.057 83.0248C224.612 83.0248 246.932 86.3813 253.774 108.608C260.616 130.834 242.254 129.593 236.173 130.179Z" fill="#475AEA"/>
<path d="M249.182 140.684C254.332 137.722 257.033 132.78 255.216 129.644C253.398 126.508 247.75 126.367 242.601 129.328C237.451 132.29 234.75 137.233 236.568 140.368C238.385 143.504 244.033 143.645 249.182 140.684Z" fill="#F3ABAA"/>
<path d="M222.722 149.384C222.722 149.384 228.345 150.1 230.639 145.195" stroke="#0D0F44" stroke-width="0.916209" stroke-miterlimit="10" stroke-linecap="round"/>
<path d="M243.829 136.135L251.486 132.84" stroke="#0D0F44" stroke-width="0.916209" stroke-miterlimit="10" stroke-linecap="round"/>
<path d="M212.002 132.615L210.42 139.335C210.375 139.53 210.37 139.732 210.406 139.929C210.443 140.126 210.52 140.313 210.632 140.479C210.745 140.645 210.89 140.786 211.06 140.893C211.23 141 211.42 141.071 211.619 141.102L213.242 141.361" stroke="#0D0F44" stroke-width="0.916209" stroke-miterlimit="10" stroke-linecap="round"/>
<path d="M207.562 129.487C207.797 127.542 207.171 125.867 206.164 125.747C205.158 125.627 204.152 127.106 203.918 129.052C203.683 130.997 204.309 132.671 205.316 132.792C206.322 132.912 207.328 131.433 207.562 129.487Z" fill="#0D0F44"/>
<path d="M221.663 131.902C221.897 129.957 221.271 128.282 220.264 128.162C219.258 128.042 218.252 129.521 218.018 131.466C217.783 133.412 218.409 135.086 219.416 135.206C220.422 135.327 221.428 133.847 221.663 131.902Z" fill="#0D0F44"/>
<path d="M167.167 22.2614C165.927 17.5512 163.47 13.2471 160.04 9.77742C156.611 6.30774 152.329 3.79345 147.62 2.4847C142.912 1.17596 137.941 1.1184 133.202 2.31774C128.462 3.51709 124.121 5.93153 120.609 9.32083C117.096 12.7101 114.536 16.9561 113.182 21.6363C111.828 26.3165 111.728 31.2678 112.892 35.9974C114.055 40.7271 116.442 45.0702 119.815 48.5947C123.187 52.1192 127.428 54.7022 132.115 56.0867C133.173 56.4073 134.13 56.9944 134.894 57.7912C135.657 58.588 136.201 59.5676 136.474 60.6354L137.329 63.7937C137.712 65.2442 138.379 66.6052 139.29 67.7988C140.202 68.9925 141.341 69.9955 142.642 70.7505C143.943 71.5055 145.38 71.9978 146.872 72.1992C148.365 72.4006 149.882 72.3071 151.338 71.9242C152.795 71.5418 154.161 70.8773 155.36 69.9688C156.559 69.0603 157.566 67.9256 158.325 66.6294C159.083 65.3332 159.578 63.9009 159.781 62.4144C159.983 60.9279 159.89 59.4163 159.506 57.9659L158.653 54.8348C158.366 53.7781 158.356 52.6659 158.623 51.6039C158.891 50.542 159.426 49.5658 160.179 48.7682C163.54 45.3243 165.949 41.0736 167.173 36.429C168.398 31.7845 168.396 26.9039 167.167 22.2614Z" fill="#FFD550"/>
<path d="M142.249 57.2104L158.414 52.9689" stroke="#FF2633" stroke-width="2.29052" stroke-miterlimit="10" stroke-linecap="round"/>
<path d="M141.834 7.11353C141.834 7.11353 153.492 8.2239 157.379 18.1678" stroke="white" stroke-width="1.83242" stroke-miterlimit="10" stroke-linecap="round"/>
<path d="M107.996 13.1701C107.996 13.1701 99.255 24.1121 105.221 39.5809" stroke="#FF2633" stroke-width="2.29052" stroke-miterlimit="10" stroke-linecap="round"/>
<path d="M98.7164 6.52142C98.7164 6.52142 85.8624 22.6302 94.6282 45.4094" stroke="#FF2633" stroke-width="2.29052" stroke-miterlimit="10" stroke-linecap="round"/>
</svg>
