<?xml version="1.0" standalone="no"?>
<!DOCTYPE svg PUBLIC "-//W3C//DTD SVG 20010904//EN"
 "http://www.w3.org/TR/2001/REC-SVG-20010904/DTD/svg10.dtd">
<svg version="1.0" xmlns="http://www.w3.org/2000/svg"
 width="822.000000pt" height="352.000000pt" viewBox="0 0 822.000000 352.000000"
 preserveAspectRatio="xMidYMid meet">

<g transform="translate(0.000000,352.000000) scale(0.100000,-0.100000)"
fill="#000000" stroke="none">
<path d="M2615 2531 c-67 -31 -108 -73 -139 -141 l-20 -45 -8 43 c-10 58 -39
106 -66 110 -33 5 -37 -22 -9 -60 35 -48 47 -91 47 -175 l0 -73 -42 30 c-45
33 -123 60 -173 60 -97 0 -200 -65 -232 -148 -36 -95 -11 -263 67 -444 89
-207 147 -246 316 -213 78 16 90 16 167 1 160 -32 214 -2 297 168 83 169 126
360 101 452 -26 95 -98 159 -202 176 -81 14 -156 -5 -225 -58 l-47 -36 7 32
c3 18 6 47 6 65 0 30 3 33 37 40 71 13 147 48 191 88 39 37 92 120 92 147 0
22 -104 11 -165 -19z"/>
<path d="M4590 1879 l0 -82 -25 23 c-18 17 -40 24 -77 27 -91 7 -150 -50 -150
-145 0 -104 106 -168 205 -124 72 32 82 59 82 232 0 130 -2 145 -17 148 -16 3
-18 -6 -18 -79z m-57 -70 c38 -20 57 -51 57 -99 0 -54 -20 -87 -66 -106 -42
-18 -87 -9 -119 24 -90 90 16 238 128 181z"/>
<path d="M3353 1830 c-68 -41 -90 -118 -54 -188 44 -86 138 -106 211 -46 l30
26 0 -31 c0 -21 5 -31 15 -31 21 0 21 169 0 213 -34 71 -133 99 -202 57z m120
-21 c62 -32 77 -114 31 -168 -69 -82 -184 -41 -184 66 0 82 84 137 153 102z"/>
<path d="M3715 1835 c-63 -33 -96 -108 -75 -170 14 -42 68 -91 109 -100 45
-10 108 4 138 29 37 32 21 53 -18 25 -90 -64 -199 -11 -199 97 0 55 53 104
112 104 25 0 56 -8 76 -20 38 -23 52 -25 52 -7 -1 44 -136 73 -195 42z"/>
<path d="M4043 1830 c-42 -25 -63 -68 -63 -129 0 -42 5 -56 31 -86 44 -49 95
-63 154 -41 25 10 49 25 55 34 7 14 9 10 10 -15 0 -27 4 -33 21 -33 21 0 21 4
17 93 -6 140 -49 197 -148 197 -27 0 -58 -8 -77 -20z m140 -31 c15 -11 32 -37
38 -58 10 -32 8 -43 -10 -79 -23 -46 -48 -63 -92 -64 -87 -3 -136 92 -89 170
33 54 106 69 153 31z"/>
<path d="M4750 1824 c-122 -103 -40 -289 115 -260 38 8 95 50 95 72 0 22 -24
17 -50 -11 -60 -64 -169 -30 -182 56 l-3 24 127 3 126 3 -10 37 c-18 67 -67
102 -142 102 -33 0 -52 -6 -76 -26z m139 -18 c22 -12 51 -52 51 -71 0 -3 -47
-5 -105 -5 -119 0 -130 9 -74 61 35 33 82 38 128 15z"/>
<path d="M5125 1840 c-11 -4 -31 -20 -45 -35 -23 -24 -25 -36 -28 -136 -3 -92
-1 -109 11 -109 12 0 16 20 19 104 4 122 16 146 78 146 62 0 74 -24 78 -146 3
-81 7 -104 18 -104 11 0 14 17 14 73 0 128 27 177 97 177 51 0 63 -27 63 -147
0 -85 3 -103 15 -103 12 0 15 19 15 111 0 61 -5 119 -11 131 -6 11 -26 26 -45
34 -43 18 -106 4 -129 -29 l-16 -22 -17 22 c-17 21 -61 44 -85 42 -7 0 -21 -4
-32 -9z"/>
<path d="M5520 1842 c0 -5 25 -63 55 -131 l55 -122 -25 -56 c-26 -57 -26 -69
-2 -60 12 5 167 344 167 366 0 6 -6 11 -13 11 -7 0 -33 -46 -58 -101 -24 -56
-48 -100 -54 -98 -5 2 -30 47 -54 101 -24 55 -50 98 -57 98 -8 0 -14 -4 -14
-8z"/>
<path d="M1942 1341 c-197 -68 -215 -337 -29 -438 29 -16 80 -18 575 -21 l542
-3 0 45 0 45 -529 3 c-517 3 -530 3 -557 24 -96 71 -91 197 9 252 29 15 81 17
555 20 l522 3 0 44 0 45 -517 0 c-475 -1 -522 -2 -571 -19z"/>
<path d="M1955 1200 c-18 -20 -17 -20 518 -20 530 0 537 0 537 20 0 20 -7 20
-518 20 -506 0 -519 0 -537 -20z"/>
<path d="M1920 1120 c0 -20 7 -20 545 -20 538 0 545 0 545 20 0 20 -7 20 -545
20 -538 0 -545 0 -545 -20z"/>
<path d="M1940 1049 c0 -5 16 -17 35 -25 28 -12 120 -14 535 -14 l500 0 0 25
0 25 -535 0 c-367 0 -535 -3 -535 -11z"/>
</g>
</svg>
