<svg width="529" height="471" viewBox="0 0 529 471" fill="none" xmlns="http://www.w3.org/2000/svg">
<path d="M158.748 23.3239C158.748 26.061 159.013 28.7981 159.189 31.5352C159.983 41.1593 163.423 49.1942 172.156 54.3153C176.567 56.9641 179.919 60.6725 181.507 65.7053C179.566 66.4999 177.537 67.2062 175.067 68.1775C170.48 64.0276 166.07 58.2002 158.572 62.1735C155.308 59.7895 152.132 57.3173 148.604 54.7567C147.722 56.8758 146.928 58.8183 146.222 60.6724C140.841 62.2617 136.166 59.9661 131.314 58.8183C124.61 57.229 117.994 55.6397 111.29 54.3153C109.173 53.8738 106.526 53.7855 104.674 54.6684C96.9991 58.5534 89.7657 62.9681 87.1193 72.239C82.6204 88.1321 80.0623 103.584 92.3239 117.446C93.5588 118.77 94.2645 120.536 95.2349 122.037C101.41 132.014 106.438 142.875 116.318 150.115C117.729 151.174 118.611 152.94 119.846 154.265C123.816 158.591 127.962 162.918 131.931 167.244C134.048 169.54 135.901 172.189 138.106 174.484C143.311 180.047 148.339 185.874 154.073 190.819C156.543 192.938 160.777 193.114 163.953 194.086C164.394 202.738 164.482 202.738 169.775 206.977C173.303 209.802 176.744 212.804 180.184 215.894C191.74 226.225 202.149 237.88 216.616 244.413C217.41 244.767 218.292 245.296 218.821 246.003C224.643 253.773 234.611 256.951 239.816 265.428C240.698 266.929 242.462 267.9 243.962 268.959C250.754 273.551 257.635 278.054 264.427 282.645C266.28 283.881 268.749 285.206 269.367 286.971C271.396 292.357 275.983 293.947 280.394 296.331C287.627 300.127 295.743 303.571 301.035 309.398C307.74 316.727 315.767 321.406 323.971 326.351C330.234 330.059 336.32 334.121 342.231 338.359C351.758 345.246 361.108 352.574 370.635 359.638C387.131 371.911 403.539 384.096 420.123 396.28C426.739 401.136 433.443 405.904 440.235 410.496C445.087 413.762 450.027 416.765 453.114 421.621C451.174 425.329 448.968 425.771 445.969 424.181C441.647 421.886 437.324 421.179 433.531 425.329C433.355 425.506 432.12 424.799 431.502 424.534C432.12 421.091 432.649 417.736 433.266 413.851C429.473 412.88 426.474 412.173 423.651 411.467C422.945 408.553 422.24 405.904 421.711 403.785C409.184 396.368 409.184 396.368 403.45 396.81C404.333 398.576 405.126 400.165 406.361 402.461C399.745 400.607 396.482 396.28 392.688 392.219C384.749 383.566 375.399 377.65 363.755 379.592C360.844 377.209 358.462 375.266 356.08 373.235C349.464 367.761 339.673 368.909 333.674 362.375C318.854 358.667 305.887 351.25 294.067 341.626C292.92 340.743 290.979 340.831 287.715 340.125C290.803 346.924 293.096 352.221 295.478 357.431C288.95 355.311 286.657 348.778 282.334 344.54C274.572 336.946 267.426 328.735 259.134 321.848C251.46 315.579 242.55 310.811 234.258 305.337C229.936 302.511 225.437 301.01 219.703 302.158C219.527 304.542 219.35 306.661 219.262 308.692C215.557 305.513 212.47 300.216 207.177 301.01C196.591 302.6 189.887 297.832 184.33 289.797C183.095 287.943 181.154 286.618 179.655 284.852C179.213 284.234 179.302 283.175 179.125 282.38C183.007 280.703 183.977 277.701 182.654 273.551C190.064 275.052 195.974 280.526 205.236 281.674C203.031 277.436 202.149 273.109 200.12 272.315C193.327 269.842 189.093 264.28 183.448 260.483C178.42 257.04 173.568 256.245 168.187 260.571C167.305 263.75 166.334 267.193 165.452 270.284C167.481 273.992 169.422 277.082 170.921 280.438C171.363 281.409 170.921 283.969 170.48 284.058C168.893 284.411 166.952 284.499 165.629 283.793C162.012 281.762 161.924 277.789 160.865 274.345C159.983 271.255 158.836 268.165 155.308 267.105C147.457 264.898 142.076 259.424 136.43 254.038C128.668 246.444 119.052 241.5 109.261 236.379L105.203 243.707C101.233 231.522 90.3831 228.167 82.3558 221.898C76.3573 217.219 69.0356 214.128 62.5079 210.067C55.6273 205.652 50.0699 199.825 45.6593 192.055C51.0403 194.086 55.9802 195.322 60.2144 197.706C64.0958 199.825 67.6242 202.915 70.8881 206.005C74.6813 209.625 80.768 207.241 84.2083 212.009C86.2372 214.747 89.8539 216.424 92.9413 218.278C102.468 223.753 111.907 229.05 121.522 234.348C122.316 234.789 123.639 234.26 125.051 234.171C124.257 232.847 123.992 231.787 123.375 231.346C105.82 221.457 89.6775 209.714 74.2402 196.823C72.2113 195.057 69.6531 193.821 67.3596 192.32C62.4197 189.053 57.4798 185.786 52.5399 182.607C44.1596 177.221 36.3087 170.864 26.2525 168.215C23.9589 172.63 21.7536 176.338 16.2844 176.515C12.7559 176.603 11.0799 179.605 9.93309 182.784C7.11028 190.907 4.19928 199.03 1.46468 207.153C0.758978 209.272 0.317871 211.48 0.317871 213.687C0.317871 218.631 0.494297 223.664 0.758935 228.609C1.46464 242.118 4.28749 254.744 14.6966 264.545C17.6958 267.37 20.254 270.637 22.6358 273.904C39.3962 297.037 61.6258 314.608 82.7968 333.15C88.266 337.917 94.6174 341.538 98.4988 348.071C99.822 350.367 101.851 353.016 104.144 353.899C112.084 356.812 117.288 363.523 124.345 367.496C128.403 369.792 131.49 372.706 134.401 376.326C138.724 381.447 143.752 386.568 149.398 390.011C159.189 396.015 168.099 402.991 176.92 410.231C183.271 415.352 189.711 420.738 196.944 424.358C203.56 427.625 209.47 431.51 215.557 435.66C219.174 438.132 222.702 441.046 226.319 443.783C226.407 443.341 226.407 442.9 226.407 442.37C226.584 441.575 226.76 440.781 227.025 439.721C227.642 438.75 227.907 437.779 227.642 436.542C227.554 435.924 228.083 435.395 228.789 435.306C229.142 435.306 229.495 435.306 229.936 435.395C230.642 435.483 231.347 435.306 231.788 434.777C232.582 434.07 233.553 433.717 234.17 432.834C234.699 432.04 235.405 431.333 236.111 430.538C235.581 429.037 236.111 427.625 236.375 426.124C238.228 425.771 238.228 425.771 238.14 423.828C238.14 423.475 238.228 423.033 238.404 422.857C239.022 422.15 239.639 421.532 240.345 420.826C240.345 420.561 240.257 420.208 240.345 419.855C240.433 419.502 240.521 419.148 240.698 418.884C241.668 417.824 242.727 416.676 243.785 415.705C244.138 415.352 244.579 415.087 245.02 414.999C245.991 414.822 246.52 414.204 246.873 413.409C246.961 413.144 247.049 413.056 247.137 412.88C246.079 411.29 244.667 409.966 242.021 409.436C236.993 408.465 231.171 405.728 228.172 401.843C223.496 395.574 217.145 394.426 210.705 392.572C210.353 385.685 207.706 380.74 200.737 377.915C196.68 376.237 192.886 373.147 189.887 369.792C183.712 363.081 176.655 360.521 167.834 363.081C167.128 363.258 166.158 362.463 164.747 361.934C156.278 345.334 139.782 337.123 123.11 327.764C126.374 327.499 128.403 327.322 131.049 327.057C130.167 325.291 129.902 323.79 129.02 323.084C124.08 318.934 118.611 316.02 111.995 315.049C104.233 313.901 99.3809 309.487 93.6471 299.774C98.7634 302.07 102.998 305.248 107.496 305.778C117.906 307.191 126.286 312.4 134.137 318.316C146.839 328.028 162.012 333.856 173.921 344.804C174.891 345.687 176.391 346.305 177.626 346.394C182.742 346.659 185.477 350.544 189.093 353.192C192.71 355.841 196.68 358.049 200.649 360.256C203.825 362.022 207.265 363.346 210.441 365.112C220.585 370.94 229.848 378.445 241.315 381.976C242.55 382.33 243.609 383.477 244.756 384.184C252.695 341.626 259.223 392.042 266.456 395.927C266.721 395.485 267.25 395.309 267.779 395.221C268.132 395.221 268.485 395.221 268.838 395.132C269.896 394.956 270.602 394.249 270.69 393.19C270.778 392.395 271.043 391.777 271.572 391.247C271.837 390.982 272.102 390.718 272.278 390.364C272.984 389.128 273.954 388.069 275.277 387.539C275.807 387.362 276.159 387.009 276.424 386.391C276.865 385.508 276.953 385.508 278.541 386.126C278.806 385.861 279.07 385.685 279.247 385.508C280.305 384.272 281.629 383.389 282.864 382.418C284.099 381.358 285.686 381.005 287.186 380.564C287.892 380.387 288.421 380.034 288.862 379.504C289.391 378.886 290.009 378.18 290.715 377.65C291.508 377.12 292.302 376.237 293.537 376.59C294.684 376.061 295.919 376.149 297.154 376.149C297.771 376.149 298.213 375.884 298.654 375.443C299.007 375.09 299.536 374.825 299.977 375.001C301.035 375.531 301.917 374.913 302.888 374.736C303.593 375.266 304.299 375.708 305.005 376.237C305.975 375.531 306.946 375.531 307.74 376.237C308.622 376.944 309.416 376.944 310.827 376.414C311.621 376.679 311.797 377.827 313.12 377.738C314.179 379.504 315.943 379.239 318.06 379.416C318.678 380.122 319.295 380.475 320.177 380.387L316.384 378.268C319.384 376.59 320.971 377.915 322.118 380.034C322.206 380.034 322.383 380.034 322.471 380.034C323.265 380.122 323.971 380.387 324.853 380.475C325.382 380.475 325.823 380.829 326.441 381.094C327.323 380.122 328.558 380.475 329.704 380.211C330.763 379.946 331.645 379.593 333.762 379.063C334.38 379.328 334.909 379.416 335.527 379.063C336.056 378.71 336.585 378.886 337.026 379.416C337.644 380.211 338.438 380.74 339.408 381.094C340.114 381.27 340.378 381.8 340.466 382.506C340.555 383.301 340.731 384.096 341.172 385.067C342.584 384.978 343.201 385.773 343.554 386.921C343.642 387.186 343.73 387.451 343.819 387.716C345.583 387.98 347.259 387.627 349.023 385.861C347.876 383.213 346.641 380.475 345.406 377.738C355.463 385.685 355.463 385.685 355.551 395.309C352.022 395.486 348.935 394.603 346.024 393.19C346.024 393.366 346.024 393.631 346.024 393.896C346.377 394.779 346.906 395.662 347.259 396.545C347.435 396.898 347.523 397.34 347.523 397.781C347.523 398.664 347.612 399.459 347.788 400.342C348.053 401.754 348.141 403.167 348.229 404.58C348.317 405.375 347.965 406.169 347.523 406.876C347.171 407.494 346.906 408.2 346.641 408.906C346.288 409.878 345.936 410.849 345.671 411.908C345.406 412.88 345.318 413.851 345.054 414.822C344.524 417.118 344.083 419.413 342.936 421.444C342.319 422.504 341.878 423.475 341.613 424.711C341.525 425.329 341.172 425.859 340.819 426.389C339.849 427.713 339.32 429.214 339.055 430.803C339.055 430.98 338.967 431.245 338.879 431.421C343.466 433.805 347.965 436.454 352.287 439.545C354.492 441.134 357.227 441.928 359.697 443.076C365.431 445.725 371.076 448.374 377.251 451.288C379.457 449.698 382.368 448.109 386.249 450.493C398.775 457.91 413.507 460.47 425.945 468.328C429.297 470.448 433.531 471.419 437.501 472.478C446.763 474.951 456.025 477.158 465.376 479.454C475.697 482.014 486.106 482.632 496.515 480.16C500.22 479.277 503.572 477.776 505.513 474.421C512.393 462.501 513.452 449.61 507.012 437.867C498.985 423.122 489.634 408.906 474.726 399.635C471.639 397.693 468.551 395.75 465.729 393.543C462.465 391.071 458.231 388.863 456.555 385.508C451.262 374.913 442.264 370.94 430.796 369.527C431.149 359.726 425.415 356.548 416.771 356.636C416.682 351.78 414.389 348.601 409.713 347.983C401.774 346.835 395.07 343.303 388.895 338.359C386.778 336.681 384.044 335.887 381.662 334.474C380.956 334.121 380.603 333.15 380.074 332.443C381.044 331.119 381.927 329.706 383.073 328.028C378.663 324.055 373.458 322.378 368.43 320.259C364.284 318.493 359.962 316.903 356.08 314.608C347.082 309.31 338.261 303.571 329.44 297.92C326.97 296.331 324.412 294.918 321.854 293.329C321.765 293.505 321.677 293.682 321.677 293.77C321.501 294.3 321.236 294.653 320.442 294.565C319.913 295.006 319.736 295.624 318.325 297.302C318.325 298.185 317.619 298.715 316.914 299.862C316.296 299.951 315.943 300.392 315.679 301.01C315.502 301.363 315.326 301.805 315.061 302.511C315.238 303.129 314.885 303.659 314.62 304.101C314.267 304.807 313.826 305.513 312.503 306.043C312.062 306.396 311.621 306.485 310.651 306.043C310.121 306.22 309.592 306.131 308.445 306.573C308.092 306.396 307.74 306.308 307.034 306.661C306.505 306.485 306.063 306.573 305.534 306.661C304.917 306.749 304.387 306.573 302.888 306.485C302.182 306.22 301.476 305.955 300.33 305.16C299.536 304.984 298.918 304.63 298.213 304.277C297.86 304.101 297.419 304.101 297.066 304.012C296.536 304.012 295.919 303.836 295.39 303.659C295.037 303.571 294.772 303.306 294.155 302.335C293.978 301.982 293.802 301.717 293.361 301.54C292.832 301.364 292.479 300.922 292.038 299.686C291.508 298.891 290.891 298.097 290.362 297.39C289.832 296.684 289.479 295.889 289.303 294.741C289.656 294.035 289.215 293.505 289.038 292.887C288.862 292.269 288.686 291.651 288.862 290.945C288.95 290.503 288.686 290.238 288.862 289.091C288.95 288.737 289.038 288.473 288.95 288.031C288.862 287.59 288.95 287.06 289.127 285.735C288.95 285.382 288.686 285.029 288.509 284.676C288.509 284.058 288.509 283.351 288.95 282.115C288.95 281.144 289.303 280.261 290.009 279.643C289.832 278.937 290.009 278.23 290.185 276.288C290.097 275.846 289.832 275.493 289.479 275.228C289.127 274.963 288.95 274.61 288.95 274.08C288.95 273.727 288.774 273.374 288.774 273.021C288.686 272.668 288.686 272.226 288.686 271.873C288.774 271.078 289.038 270.284 289.215 269.489C289.303 269.313 289.303 269.048 289.391 268.871C284.981 265.516 280.482 263.044 275.101 264.015C270.161 252.89 266.632 250.064 256.135 248.916C252.077 248.475 247.402 248.298 245.461 244.06C242.021 236.555 235.052 232.67 229.495 227.461C223.849 222.075 215.91 219.514 210.441 214.57C200.649 205.652 188.388 199.825 180.448 188.876C179.743 187.817 178.508 186.845 177.273 186.404C168.628 183.314 163.423 176.515 158.219 169.54C156.102 166.714 153.455 163.624 150.28 162.211C143.575 159.121 139.518 154.088 136.254 147.819C134.754 145.082 132.461 142.786 130.608 140.226C122.228 129.366 113.848 118.594 105.644 107.645C103.703 105.173 101.674 102.436 104.409 98.4625C109.614 97.8445 114.73 99.787 119.758 101.729C125.668 104.025 131.667 106.321 137.401 109.146C145.957 113.384 154.602 117.622 162.718 122.744C183.536 135.811 203.207 150.733 224.555 163.006C227.289 164.595 229.671 166.891 232.229 168.745C235.581 171.129 238.845 173.601 242.286 175.809C248.461 179.694 254.635 183.579 260.987 187.199C267.603 191.084 274.13 195.498 281.276 198.412C289.479 201.679 296.889 205.652 302.976 212.098C305.711 215.011 309.327 218.19 313.032 218.896C320.619 220.309 326.264 224.9 332.527 228.52C337.644 231.522 342.407 235.231 347.7 237.791C363.314 245.296 378.839 252.801 393.482 262.249C394.982 263.22 396.746 263.75 398.51 264.368C410.419 268.871 422.416 273.286 434.237 277.877C436.795 278.848 439.088 280.349 441.47 281.674C444.293 283.175 446.851 285.117 449.762 286.353C462.377 291.651 475.432 295.978 487.605 302.158C500.308 308.604 512.129 306.396 524.214 302.865C525.184 297.743 525.272 292.976 527.036 289.002C529.242 284.234 528.272 280.261 526.595 275.846C524.214 269.489 522.008 263.044 519.45 255.892C511.511 249.005 503.131 241.323 494.398 234.171C489.105 229.845 483.283 226.313 477.637 222.516C474.197 220.221 470.228 218.631 467.228 215.983C458.054 207.771 448.527 200.178 436.442 196.47C433.531 195.587 430.532 193.732 428.415 191.437C424.18 186.934 418.799 184.726 413.595 181.901C407.596 178.634 401.598 175.367 395.776 171.747C383.955 164.242 372.488 156.207 360.491 148.879C342.495 138.019 322.648 130.955 304.476 120.713C299.359 117.799 294.331 114.709 289.479 111.265C279.511 104.113 269.808 96.7849 257.37 93.7829C249.96 92.017 243.168 87.7789 237.346 82.3929C233.994 79.3909 230.2 76.9187 226.496 74.1815C214.058 65.0872 200.208 57.7587 190.505 45.2209C189.887 44.4262 189.887 43.0135 189.534 41.4242C191.651 41.7774 193.063 41.6008 194.21 42.1306C216.086 53.5206 237.963 64.8223 258.34 78.7728C260.987 80.5387 263.368 83.011 266.279 84.0705C276.248 87.6906 284.716 93.9595 293.714 99.2572C299.977 102.966 306.064 107.292 312.768 109.941C320.178 112.943 326.176 117.534 332.351 122.302C338.879 127.247 345.142 132.456 351.846 137.224C354.316 138.99 357.58 140.667 360.491 140.756C366.93 141.109 371.606 144.552 376.281 148.261C380.162 151.351 383.779 155.236 388.19 157.355C401.686 163.977 414.477 171.747 427.18 179.782C445.704 191.348 465.288 201.414 484.43 212.009C491.751 216.071 499.779 217.925 507.983 218.985C512.57 219.603 515.216 218.543 517.069 215.629C516.804 215.541 516.627 215.453 516.363 215.276C513.452 212.451 509.659 211.568 506.836 209.184C505.777 208.301 504.631 207.506 503.484 206.623C502.69 206.005 501.984 205.211 501.102 204.681C495.721 201.502 491.134 197.264 486.459 193.203C483.9 191.084 481.342 189.053 478.961 186.757C473.844 181.636 467.669 177.839 462.2 173.071C459.554 170.688 457.172 168.127 454.79 165.478C450.468 160.622 446.41 155.677 442.617 150.468C440.5 147.466 438.383 144.464 436.795 141.109C436.266 139.961 436.001 138.813 436.354 137.489C436.971 134.928 437.236 132.191 437.765 129.631C431.502 123.45 425.239 117.181 418.623 110.559C413.33 113.119 408.214 112.766 403.803 108.44C402.833 107.557 401.422 106.851 400.187 106.586C393.306 105.35 389.16 100.493 384.838 95.7254C382.103 92.7234 379.457 89.5448 376.81 86.6311C373.899 86.1896 371.253 85.8364 368.342 85.3949C364.196 77.2718 357.844 71.9742 349.376 68.5307C343.995 66.3233 339.143 62.6149 334.203 59.2597C331.998 57.7587 330.057 55.7279 328.47 53.5206C326.705 51.0483 326.529 48.3995 330.146 47.0751C331.028 47.2517 332.086 47.2517 332.792 47.6932C338.349 51.5781 344.348 54.7567 349.552 59.348C354.581 63.6745 361.549 65.7052 366.225 70.9146C367.107 71.8859 368.342 72.6805 369.488 73.3869C371.517 74.5347 373.811 75.506 375.663 73.2986C377.428 71.1795 376.722 68.8839 374.693 67.3828C372.135 65.4404 369.4 63.7628 366.666 62.1735C354.051 54.845 341.349 47.6049 328.734 40.1881C326.882 39.0403 324.5 38.069 324.941 34.3607C326.176 33.9192 327.94 32.5948 329.263 32.8597C339.055 34.9787 349.288 36.2149 358.374 40.0115C376.016 47.34 393.13 55.9929 410.331 64.4691C422.945 70.738 435.383 77.1835 447.91 83.629C448.527 82.5695 449.233 81.51 449.85 80.4504C451.615 77.4484 454.085 75.0645 456.996 73.2103C458.495 72.239 459.907 71.1795 461.318 70.12C463.876 68.0892 466.611 66.4116 469.434 64.9989C468.904 64.0276 468.375 63.0564 467.846 62.0852C459.73 46.8102 445.175 38.5988 431.326 30.0342C424.533 25.7961 415.888 24.4717 408.479 20.9399C399.216 16.5252 388.807 16.9666 379.457 13.3465C363.755 7.34252 347.347 7.51911 330.94 8.49035C323.441 8.93182 316.825 9.99135 312.15 17.3198C308.886 22.3526 303.064 22.9707 297.419 20.2335C293.361 18.2028 289.303 15.9954 285.245 14.0529C283.746 13.3466 281.805 12.3753 280.923 15.0242C281.452 15.8188 281.717 16.79 282.422 17.3198C284.981 19.174 287.539 21.3814 290.362 22.5292C299.712 26.2376 302.976 34.449 307.651 44.338C298.301 41.0711 292.479 35.4202 285.333 29.5928C284.54 33.1246 284.01 35.2436 283.569 37.2744C283.04 39.57 282.246 42.3072 279.6 42.0423C277.747 41.8657 275.983 39.9232 274.483 38.4222C273.248 37.1861 272.366 35.5968 271.308 34.1841C275.454 30.8289 275.895 28.0917 272.102 26.2376C265.133 22.7941 258.87 18.3794 252.695 13.6114C250.666 11.9339 247.755 11.2275 245.197 10.5211C243.521 10.0797 241.58 10.0796 241.315 12.4636C242.815 17.5847 252.165 15.8188 251.195 24.1185C244.844 23.3238 240.698 19.7038 236.111 17.0549C219.703 7.43082 202.061 1.95656 183.095 0.808733C168.54 -0.250802 158.66 9.02013 158.748 23.3239ZM74.4166 231.699C75.5634 231.522 75.9163 232.229 76.2691 232.935C75.6516 232.582 74.9459 232.229 74.4166 231.699ZM210.441 392.307C209.647 392.395 208.941 392.484 208.147 392.484C209.118 391.512 209.823 391.954 210.441 392.307ZM221.467 312.224C220.585 311.429 219.88 310.281 219.262 309.222C220.497 309.398 221.732 309.487 222.879 309.928C223.408 310.105 223.496 311.252 223.849 311.959C222.967 312.135 221.909 312.577 221.467 312.224ZM241.051 322.907C241.845 321.76 242.815 321.583 243.168 321.936C243.962 322.907 244.403 324.143 244.932 325.291C242.638 325.026 241.756 323.967 241.051 322.907ZM301.565 364.141C301.212 364.053 300.947 363.523 301.035 363.17C301.212 362.64 301.741 362.375 302.182 362.552C302.535 362.728 302.711 362.993 302.623 363.435C302.623 363.876 302.006 364.229 301.565 364.141ZM303.594 371.646C303.77 371.646 303.858 371.823 304.211 372.176C303.594 372.176 303.329 372.264 303.594 371.646ZM304.035 368.821C304.035 368.467 304.476 368.203 304.652 368.379C304.828 368.467 305.005 368.732 304.035 368.821ZM392.424 421.356C390.748 415.705 387.307 412.085 382.544 408.995C380.427 407.67 379.104 404.933 377.604 402.814C375.311 399.635 373.193 396.368 369.665 391.247C377.251 392.042 381.926 396.104 386.602 399.017C391.365 402.019 392.159 409.259 397.54 412.438C398.069 416.676 398.599 420.826 399.128 424.976C395.335 425.859 393.13 423.828 392.424 421.356ZM158.483 62.9681C158.572 63.8511 158.748 64.8223 158.836 65.7053C158.219 64.2042 158.307 63.5862 158.483 62.9681ZM438.647 244.413C433.002 247.504 430.091 245.561 427.797 236.997C432.649 238.233 435.648 241.147 438.647 244.413ZM356.08 200.001C350.346 198.765 347.524 196.734 344.524 195.41C343.907 195.145 343.819 193.997 343.113 192.32C348.317 192.231 351.317 194.969 356.08 200.001ZM226.054 103.848C226.937 104.731 227.73 105.614 228.348 106.674C226.496 107.204 225.702 106.232 224.996 105.173C226.055 103.848 226.054 103.848 226.054 103.848ZM319.207 42.6604C319.207 42.3955 321.148 42.0423 321.236 42.2189C321.677 43.2784 321.854 44.4263 322.118 45.4858C321.413 45.6624 320.619 45.839 319.472 46.1038C319.384 44.8677 319.119 43.7199 319.207 42.6604ZM316.649 55.2865C317.355 55.7279 318.325 55.9046 318.678 56.5226C319.031 57.0524 318.678 58.0236 318.59 58.73C317.884 58.3768 316.825 58.2002 316.473 57.5821C316.208 57.1407 316.561 56.1694 316.649 55.2865ZM184.859 70.12C182.654 69.3253 182.213 67.736 181.772 66.1467L184.859 70.12Z" fill="#E5D1B8"/>
</svg>
