<svg width="329" height="271" viewBox="0 0 329 271" fill="none" xmlns="http://www.w3.org/2000/svg">
<path d="M117.975 12.7407C114.575 12.8407 111.775 11.5407 109.175 9.44072C106.275 7.04072 102.675 5.54069 98.8746 5.54069C93.9746 5.44069 89.6746 3.74072 85.3746 1.94072C80.3746 -0.0592847 75.3746 -0.959285 70.2746 1.44072C69.3746 1.84072 68.1746 2.24072 67.4746 1.94072C64.5746 0.540715 61.5746 1.14072 58.6746 1.44072C57.4746 1.64072 56.2746 1.74067 55.0746 1.64067C52.3746 1.44067 50.2746 2.14069 48.6746 4.54069C48.0746 5.54069 46.9746 6.5407 45.8746 6.7407C40.3746 7.9407 36.1746 11.4407 31.5746 14.1407C27.1746 16.6407 24.2746 20.0407 22.0746 24.1407C20.2746 27.5407 18.3746 30.4407 15.2746 32.7407C15.0746 32.8407 14.8746 33.0407 14.6746 33.1407C11.6746 35.1407 10.1746 38.0407 10.4746 42.0407C10.6746 45.3407 10.2746 48.6407 8.97462 51.7407C8.67462 52.5407 8.27461 53.4407 7.77461 54.2407C6.87461 55.8407 6.47461 58.1407 6.77461 59.9407C7.57461 63.7407 8.57461 67.6407 10.2746 71.1407C11.5746 73.9407 12.3746 76.6407 12.8746 79.5407C13.1746 81.1407 13.8746 82.9407 14.9746 84.1407C19.4746 88.9407 22.0746 94.1407 20.3746 100.941C19.9746 102.441 20.3746 104.641 21.2746 105.841C23.8746 109.441 26.7746 112.741 29.7746 116.041C32.2746 118.841 35.4746 118.141 36.5746 114.641C37.1746 112.841 36.5746 110.541 38.7746 109.441C42.3746 113.241 42.4746 113.141 48.6746 114.541C52.4746 115.441 56.1746 116.841 59.3746 119.441C64.0746 123.341 68.4746 127.741 74.9746 128.841C75.6746 128.941 76.3746 129.341 76.8746 129.841C78.7746 131.841 81.1746 131.941 83.6746 132.141C85.7746 132.341 87.9746 132.741 90.0746 133.041C90.0746 133.541 90.0746 134.141 90.0746 134.641C83.6746 135.341 78.4746 138.741 73.3746 141.941C71.5746 143.141 69.8746 143.541 67.8746 143.141C63.5746 142.241 59.1746 141.441 55.2746 140.741C52.5746 142.941 50.3746 144.941 47.9746 146.541C45.1746 148.341 43.6746 150.641 44.1746 153.941C44.4746 155.741 44.3746 157.241 42.9746 158.641C40.8746 160.741 40.9746 163.141 42.9746 165.241C45.4746 168.041 45.2746 170.441 42.7746 173.041C42.0746 173.741 41.7746 174.641 41.0746 175.741C42.2746 177.341 43.4746 178.841 44.5746 180.341C44.4746 182.641 44.5746 184.841 44.2746 187.041C43.7746 191.241 41.7746 194.441 37.4746 195.841C35.6746 196.441 33.7746 197.041 32.0746 197.641C25.6746 192.741 22.4746 192.941 16.5746 198.341C15.2746 199.541 13.9746 200.541 12.7746 201.641C12.2746 206.741 12.2746 206.741 9.47462 210.541C8.17462 212.341 6.67464 213.941 5.37464 215.741C-0.525355 223.841 -1.02539 226.141 1.27461 234.841C1.37461 235.341 1.47463 235.841 1.67463 236.241C4.07463 240.241 6.3746 244.541 12.0746 244.341C13.0746 244.341 14.2746 244.241 14.8746 244.841C18.0746 247.841 21.7746 246.841 25.4746 246.341C27.1746 246.141 28.8746 245.841 30.5746 245.641C34.3746 245.341 37.3746 246.441 38.8746 250.241C40.0746 253.341 42.4746 255.341 45.4746 256.841C48.0746 258.141 50.6746 260.041 52.3746 262.341C55.8746 267.041 60.4746 268.541 65.8746 268.841C67.7746 268.941 69.7746 269.141 71.6746 269.641C78.2746 271.241 84.8746 271.541 91.3746 269.041C93.9746 268.041 96.5746 267.541 99.2746 268.941C100.275 269.441 101.875 269.641 102.775 269.241C108.275 266.741 113.375 263.741 114.175 256.741C114.575 253.641 115.375 250.541 115.875 247.641C124.375 245.041 126.475 244.541 127.575 238.641C129.275 238.741 130.975 238.941 132.675 238.741C135.475 238.341 136.775 236.941 136.475 234.241C136.175 231.341 135.975 228.141 134.775 225.541C133.075 221.941 133.475 218.941 135.175 215.641C135.975 214.141 137.175 212.441 136.975 210.941C136.375 205.841 137.075 200.441 133.975 195.841C133.775 195.541 134.075 194.941 134.175 193.941C135.375 193.641 136.675 193.241 138.075 193.041C142.975 192.141 146.975 190.241 148.375 184.841C148.975 182.541 150.875 180.541 151.675 178.241C153.475 173.341 157.075 170.941 161.775 169.141C170.575 165.741 179.175 161.941 187.775 158.341C191.175 156.941 194.475 155.341 197.875 153.941C198.375 153.741 198.875 153.541 199.375 153.341C203.775 151.541 207.075 151.641 211.775 154.041C208.675 154.841 206.175 155.441 202.975 156.241V156.341C203.275 161.041 200.175 163.041 196.275 164.741C191.575 166.741 189.075 170.641 188.575 175.741C188.175 179.641 188.075 183.641 187.775 187.441C189.175 190.541 191.975 192.641 194.675 192.841C200.375 193.241 203.875 197.041 207.875 200.141C208.375 200.541 209.275 200.641 210.275 200.941C213.775 198.541 217.375 196.041 221.175 193.541C227.175 196.941 232.975 199.541 239.475 197.141C240.775 195.841 241.975 194.641 243.175 193.441C244.675 194.041 245.775 194.441 246.975 194.841C248.175 195.241 249.275 195.741 250.475 195.941C253.475 196.241 255.675 193.141 254.275 190.441C253.575 189.141 252.575 188.041 251.775 186.741C250.675 185.041 250.775 183.541 252.075 181.941C252.675 181.141 253.275 180.341 253.975 179.541C254.075 179.341 254.275 179.141 254.375 179.041C261.175 180.941 264.075 175.641 267.675 171.441C269.775 172.741 271.375 174.141 273.375 175.041C276.275 176.341 279.375 177.341 282.375 178.241C285.675 179.141 288.975 180.341 292.575 179.441C295.075 178.741 297.275 177.741 297.575 174.741C297.775 172.741 298.675 171.141 300.575 170.341C300.675 170.341 300.675 170.241 300.775 170.241L302.175 170.741L305.175 171.841C305.375 171.641 305.575 171.441 305.775 171.341C307.975 169.341 309.975 167.441 312.175 165.941C314.775 164.141 316.375 161.941 316.675 159.241C316.675 158.941 316.775 158.641 316.775 158.341C318.875 157.341 321.475 157.041 322.275 155.641C325.275 150.641 328.975 145.641 328.675 139.341C328.575 137.741 328.475 136.241 328.275 134.641C328.075 132.241 327.775 129.941 327.675 127.541C327.475 124.141 326.475 121.441 323.975 118.941C322.475 117.441 321.675 115.141 320.675 113.241C319.275 110.641 317.975 108.041 315.575 106.041C314.275 104.941 312.975 103.541 312.275 102.041C310.975 98.9407 308.575 97.5407 305.475 96.8407C304.775 96.6407 304.075 96.3407 303.375 96.0407C297.175 93.0407 291.975 88.1407 285.075 86.3407C282.575 83.3407 278.575 82.7407 275.575 80.6407C272.375 78.3407 269.775 75.3407 266.875 72.6407C265.975 71.7407 264.975 70.9407 264.075 70.2407C262.075 68.7407 259.875 67.5407 257.175 68.0407C255.075 68.4407 253.375 67.8407 251.475 66.9407C249.475 66.0407 247.275 65.2407 245.075 65.1407C238.075 64.6407 231.475 62.7407 225.275 59.4407C221.575 57.4407 217.475 55.8407 213.175 56.3407C206.375 57.1407 199.475 57.5407 192.775 58.7407C191.475 58.9407 190.175 59.2407 188.975 59.5407C187.575 59.8407 185.775 60.1407 184.675 59.4407C180.175 56.5407 175.075 54.3407 171.075 50.7407C170.475 50.1407 169.875 49.5407 169.275 48.9407C169.175 48.8407 168.975 48.6407 168.875 48.5407C165.675 44.8407 162.175 41.3407 158.775 37.7407C157.775 36.6407 156.675 35.5407 155.375 34.8407C150.575 32.3407 145.675 29.9407 140.775 27.6407C138.775 26.7407 136.575 26.0407 134.575 25.2407C132.375 24.3407 130.575 22.9407 130.275 20.5407C130.075 19.1407 129.675 17.9407 129.075 17.0407C128.375 15.9407 127.475 15.1407 126.275 14.6407C125.075 14.0407 123.675 13.8407 122.075 13.7407C120.975 13.2407 119.475 12.6407 117.975 12.7407Z" fill="#C28753"/>
</svg>
